<svg xmlns="http://www.w3.org/2000/svg" viewBox="0 0 48 48"><g transform="translate(24 24) scale(0.822) rotate(0) translate(-24 -24)" stroke="#665346" stroke-width="1.35" stroke-linecap="round" stroke-linejoin="round"><path d="M15 7H34L40 17V39H8V17Z" fill="#FFF0CC" stroke="#FFF0CC" stroke-width="4.4"/><path d="M14 10H34L40 22V39H8V22Z" fill="#B69ACB"/><path d="M14 10H34L40 22H8Z" fill="#FFF0CC"/><path d="M17 14L15 19M24 14V19M31 14L33 19" fill="none" stroke="#665346" stroke-width="1.35"/><rect x="14" y="25" width="4" height="10" rx="1" fill="#88B996"/><rect x="22" y="25" width="4" height="10" rx="1" fill="#88B996"/><rect x="30" y="25" width="4" height="10" rx="1" fill="#88B996"/><rect x="12" y="28" width="8" height="3" rx="1" fill="#EDBD55"/><rect x="20" y="24" width="8" height="3" rx="1" fill="#F27868"/><rect x="28" y="32" width="8" height="3" rx="1" fill="#EDBD55"/><path d="M17 10V7M24 10V7M31 10V7" fill="none" stroke="#665346" stroke-width="2"/></g></svg>