<svg xmlns="http://www.w3.org/2000/svg" viewBox="0 0 48 48"><g transform="translate(24 24) scale(0.84) rotate(0) translate(-24 -24)" stroke="#665346" stroke-width="1.35" stroke-linecap="round" stroke-linejoin="round"><path d="M24 7L28 13H40L43 28H38L36 32H28V38H33V41H15V38H20V32H12L6 28L9 13H20Z" fill="#FFF0CC" stroke="#FFF0CC" stroke-width="4.4"/><path d="M22 11H26V39H22Z" fill="#EDBD55"/><rect x="15" y="38" width="18" height="3" rx="1.5" fill="#F27868"/><path d="M9 14H39" fill="none" stroke="#665346" stroke-width="2"/><circle cx="24" cy="12" r="3" fill="#EDBD55"/><path d="M12 15L7 27M12 15L18 27M36 15L30 27M36 15L42 27" fill="none" stroke="#665346" stroke-width="1.35"/><path d="M6 27H19Q18 33 12 33Q7 33 6 27Z" fill="#F27868"/><path d="M29 27H42Q41 33 35.5 33Q30 33 29 27Z" fill="#F27868"/><ellipse cx="35.5" cy="24" rx="5" ry="2" fill="#EDBD55"/><path d="M30.5 21V24Q35 27 40.5 24V21Z" fill="#EDBD55"/><ellipse cx="35.5" cy="21" rx="5" ry="2" fill="#EDBD55"/></g></svg>