<svg xmlns="http://www.w3.org/2000/svg" viewBox="0 0 48 48"><g transform="translate(24 24) scale(0.828) rotate(0) translate(-24 -24)" stroke="#665346" stroke-width="1.35" stroke-linecap="round" stroke-linejoin="round"><path d="M12 8H36Q40 8 40 12V36Q40 41 36 41H12Q8 41 8 36V12Q8 8 12 8Z" fill="#FFF0CC" stroke="#FFF0CC" stroke-width="4.4"/><rect x="9" y="9" width="30" height="31" rx="4" fill="#88B996"/><rect x="12" y="12" width="24" height="20" rx="2" fill="#FFF0CC"/><path d="M17 15V28M24 15V28M31 15V28" fill="none"/><rect x="14" y="18" width="6" height="4" rx="1" fill="#EDBD55"/><rect x="21" y="23" width="6" height="4" rx="1" fill="#EDBD55"/><rect x="28" y="16" width="6" height="4" rx="1" fill="#F27868"/><path d="M13 36H35" fill="none"/><circle cx="24" cy="36" r="1.7" fill="#EDBD55" stroke="none"/></g></svg>