<svg xmlns="http://www.w3.org/2000/svg" viewBox="0 0 48 48"><g transform="translate(24 24) scale(0.801) rotate(0) translate(-24 -24)" stroke="#665346" stroke-width="1.35" stroke-linecap="round" stroke-linejoin="round"><path d="M8 8H40V20H36V34H40V40H8V34H12V20H8Z" fill="#FFF0CC" stroke="#FFF0CC" stroke-width="4.4"/><rect x="8" y="8" width="32" height="9" rx="3" fill="#B69ACB"/><rect x="12" y="16" width="4" height="23" rx="1" fill="#88B996"/><rect x="32" y="16" width="4" height="23" rx="1" fill="#88B996"/><rect x="8" y="35" width="32" height="5" rx="1.5" fill="#B69ACB"/><path d="M16 31L24 21L32 31Z" fill="#88B996"/><path d="M20 26L24 21L27 26Z" fill="#FFF0CC"/><rect x="18" y="10" width="12" height="5" rx="2" fill="#FFF0CC"/><circle cx="22" cy="12.5" r="1" fill="#78A4C7" stroke="none"/><circle cx="26" cy="12.5" r="1" fill="#78A4C7" stroke="none"/><path d="M17 20H31" fill="none" stroke="#F27868" stroke-width="1.8"/></g></svg>