<svg xmlns="http://www.w3.org/2000/svg" viewBox="0 0 48 48"><g transform="translate(24 24) scale(0.795) rotate(0) translate(-24 -24)" stroke="#665346" stroke-width="1.35" stroke-linecap="round" stroke-linejoin="round"><path d="M12 8H31V12L41 15V23L29 27L25 31L36 42H10L19 28L8 25V17L12 16Z" fill="#FFF0CC" stroke="#FFF0CC" stroke-width="4.4"/><path d="M13 14L32 10L39 16V23L17 28L10 23V17Z" fill="#88B996"/><path d="M32 10L39 16V23L32 26Z" fill="#EDBD55"/><ellipse cx="35" cy="19" rx="3" ry="5" fill="#FFF0CC"/><rect x="12" y="8" width="14" height="7" rx="2" fill="#EDBD55"/><path d="M22 28L12 41M22 28L33 41M22 28V41" fill="none" stroke="#665346" stroke-width="2"/><path d="M15 18L27 15" fill="none" stroke="#FFF0CC" stroke-width="2"/></g></svg>