<svg xmlns="http://www.w3.org/2000/svg" viewBox="0 0 48 48"><g transform="translate(24 24) scale(0.698) rotate(0) translate(-24 -24)" stroke="#665346" stroke-width="1.35" stroke-linecap="round" stroke-linejoin="round"><path d="M8 8H40V30L44 37V41H4V37L8 30Z" fill="#FFF0CC" stroke="#FFF0CC" stroke-width="4.4"/><rect x="8" y="8" width="32" height="23" rx="3" fill="#F27868"/><rect x="11" y="11" width="26" height="17" rx="1.5" fill="#FFF0CC"/><path d="M8 31H40L44 40H4Z" fill="#78A4C7"/><path d="M13 13H24V20H13Z" fill="#EDBD55"/><path d="M17 14L21 17L17 19Z" fill="#FFF0CC"/><path d="M13 24H35" fill="none" stroke="#665346" stroke-width="1.35"/><rect x="13" y="22" width="7" height="4" rx="0.8" fill="#F27868"/><rect x="22" y="22" width="11" height="4" rx="0.8" fill="#88B996"/><path d="M27 13V26" fill="none" stroke="#F27868" stroke-width="1.3"/><circle cx="13" cy="36" r="2" fill="#FFF0CC"/><circle cx="22" cy="36" r="2" fill="#FFF0CC"/><circle cx="31" cy="36" r="2" fill="#FFF0CC"/><path d="M36 35H40" fill="none" stroke="#665346" stroke-width="1.35"/></g></svg>