<svg xmlns="http://www.w3.org/2000/svg" viewBox="0 0 48 48"><g transform="translate(24 24) scale(0.84) rotate(0) translate(-24 -24)" stroke="#665346" stroke-width="1.35" stroke-linecap="round" stroke-linejoin="round"><path d="M8 29V21C8 1 40 1 40 21V29L35 33H30V18H35C34 7 14 7 13 18H18V33H12L17 39H27V36H32V42H24L12 38Z" fill="#FFF0CC" stroke="#FFF0CC" stroke-width="4.4"/><path d="M11 25V21C11 4 37 4 37 21V25" fill="none" stroke="#665346" stroke-width="5"/><path d="M11 25V21C11 4 37 4 37 21V25" fill="none" stroke="#E5A27E" stroke-width="2.5"/><rect x="8" y="21" width="9" height="13" rx="4" fill="#88B996"/><rect x="31" y="21" width="9" height="13" rx="4" fill="#88B996"/><path d="M12 33Q13 41 28 38" fill="none" stroke="#665346" stroke-width="2"/><rect x="25" y="35" width="7" height="5" rx="2" fill="#E5A27E"/><path d="M13 25V30M35 25V30" fill="none" stroke="#FFF0CC" stroke-width="2"/></g></svg>