<svg xmlns="http://www.w3.org/2000/svg" viewBox="0 0 48 48"><g transform="translate(24 24) scale(0.755) rotate(0) translate(-24 -24)" stroke="#665346" stroke-width="1.35" stroke-linecap="round" stroke-linejoin="round"><path d="M12 7H37V25L41 27V31H35L40 42H33L24 33L15 42H9L16 31H8V27L12 25Z" fill="#FFF0CC" stroke="#FFF0CC" stroke-width="4.4"/><path d="M14 9V30M35 9V30M11 40L34 22M37 40L15 22" fill="none" stroke="#665346" stroke-width="2.5"/><path d="M14 10Q24 13 35 10V21Q24 24 14 21Z" fill="#F27868"/><path d="M13 27Q24 24 36 27L34 31H15Z" fill="#78A4C7"/><path d="M9 27H17M31 27H40" fill="none" stroke="#665346" stroke-width="3"/><path d="M18 15Q24 17 31 15" fill="none" stroke="#FFF0CC" stroke-width="2"/></g></svg>