<svg xmlns="http://www.w3.org/2000/svg" viewBox="0 0 48 48"><g transform="translate(24 24) scale(0.812) rotate(0) translate(-24 -24)" stroke="#665346" stroke-width="1.35" stroke-linecap="round" stroke-linejoin="round"><path d="M22 7H32L35 13L34 25L31 32L37 39V42H11V38L17 31V26L10 23L12 15Z" fill="#FFF0CC" stroke="#FFF0CC" stroke-width="4.4"/><path d="M21 10L23 7L26 12L31 10Q36 17 31 25L28 31H20L19 26L13 27L10 23L17 15Z" fill="#EDBD55"/><path d="M20 16L14 23L20 24L24 19" fill="#FFF0CC"/><circle cx="26" cy="15" r="1.2" fill="#665346" stroke="none"/><path d="M20 30H28L32 36H16Z" fill="#F27868"/><rect x="13" y="36" width="22" height="5" rx="1.5" fill="#EDBD55"/><path d="M29 14Q32 18 29 23" fill="none" stroke="#665346" stroke-width="1.35"/></g></svg>