<svg xmlns="http://www.w3.org/2000/svg" viewBox="0 0 48 48"><g transform="translate(24 24) scale(0.84) rotate(0) translate(-24 -24)" stroke="#665346" stroke-width="1.35" stroke-linecap="round" stroke-linejoin="round"><path d="M14 8H21V14H30V8H37V17L41 20V33H31V38L26 42H13V37H24V33H9V19L14 17Z" fill="#FFF0CC" stroke="#FFF0CC" stroke-width="4.4"/><path d="M17 9V19M33 9V19" fill="none" stroke="#665346" stroke-width="3"/><path d="M11 17H38L41 22V32H9V22Z" fill="#B69ACB"/><rect x="13" y="21" width="10" height="8" rx="2" fill="#FFF0CC"/><rect x="28" y="21" width="9" height="8" rx="2" fill="#FFF0CC"/><path d="M16 24V26M20 24V26M31 24V26M34 24V26" fill="none" stroke="#665346" stroke-width="1.7"/><path d="M24 32V35Q24 40 18 40H11" fill="none" stroke="#665346" stroke-width="4"/><path d="M24 32V35Q24 40 18 40H11" fill="none" stroke="#88B996" stroke-width="2"/></g></svg>