<svg xmlns="http://www.w3.org/2000/svg" viewBox="0 0 48 48"><g transform="translate(24 24) scale(0.801) rotate(-3) translate(-24 -24)" stroke="#665346" stroke-width="1.35" stroke-linecap="round" stroke-linejoin="round"><path d="M13 8H34L39 12V17H35V35H39V41H12Q7 41 8 35V13Z" fill="#FFF0CC" stroke="#FFF0CC" stroke-width="4.4"/><path d="M14 9H34V36H12V14Q8 14 8 12Q8 9 14 9Z" fill="#FFF0CC"/><path d="M34 9Q40 9 40 16H34Z" fill="#F27868"/><path d="M12 35H39V41H12Q7 40 8 36Z" fill="#EDBD55"/><path d="M15 18L18 15L21 18L18 21ZM15 27L18 24L21 27L18 30Z" fill="#EDBD55"/><path d="M24 17H30M24 21H28M24 26H30M24 30H28" fill="none" stroke="#665346" stroke-width="1.35"/><path d="M15 38H33" fill="none" stroke="#FFF0CC" stroke-width="1.7"/></g></svg>